<svg width="20.000000" height="20.000000" viewBox="0 0 20 20" fill="none" xmlns="http://www.w3.org/2000/svg" xmlns:xlink="http://www.w3.org/1999/xlink">
	<desc>
			Created with Pixso.
	</desc>
	<defs/>
	<path id="Форма 1" d="M4 0L16 0C18.2 0 20 1.79 20 4L20 16C20 18.2 18.2 20 16 20L4 20C1.79 20 0 18.2 0 16L0 4C0 1.79 1.79 0 4 0Z" fill="#BF2738" fill-opacity="1.000000" fill-rule="evenodd"/>
	<path id="Форма 1" d="M14.72 7.69L8.96 13.69C8.76 13.88 8.49 14 8.21 14C7.94 13.99 7.7 13.89 7.51 13.69L5.27 11.35C4.89 10.95 4.9 10.33 5.3 9.94C5.71 9.55 6.33 9.57 6.72 9.97L8.23 11.55L13.27 6.3C13.66 5.9 14.28 5.89 14.69 6.27C15.09 6.66 15.1 7.28 14.72 7.69Z" fill="#FFFFFF" fill-opacity="1.000000" fill-rule="evenodd"/>
</svg>
